<?xml version="1.0" encoding="iso-8859-1"?>
<!-- Uploaded to: SVG Repo, www.svgrepo.com, Generator: SVG Repo Mixer Tools -->
<svg fill="#000000" height="800px" width="800px" version="1.1" id="Layer_1" xmlns="http://www.w3.org/2000/svg" xmlns:xlink="http://www.w3.org/1999/xlink" 
	 viewBox="0 0 512 512" xml:space="preserve">
<g>
	<g>
		<path d="M507.699,229.009l-51.2-76.809c-4.745-7.125-12.74-11.401-21.299-11.401H332.8v-25.6c0-14.14-11.46-25.6-25.6-25.6H25.6
			C11.46,89.6,0,101.06,0,115.2v230.4c0,14.14,11.46,25.6,25.6,25.6h65.297c5.948,29.175,31.795,51.2,62.703,51.2
			c30.908,0,56.755-22.025,62.703-51.2h117.794c5.948,29.175,31.795,51.2,62.703,51.2s56.755-22.025,62.703-51.2H486.4
			c14.14,0,25.6-11.46,25.6-25.6V243.209C512,238.157,510.507,233.216,507.699,229.009z M153.6,396.8
			c-21.205,0-38.4-17.195-38.4-38.4s17.195-38.4,38.4-38.4c21.205,0,38.4,17.195,38.4,38.4S174.805,396.8,153.6,396.8z M307.2,345.6
			h-90.897c-5.948-29.175-31.795-51.2-62.703-51.2c-30.908,0-56.755,22.025-62.703,51.2H25.6V320h25.6v-25.6H25.6V115.2h281.6V345.6
			z M332.8,166.4h102.4l45.756,68.642l-68.25-17.067c-1.015-0.247-2.056-0.375-3.106-0.375h-76.8V166.4z M396.8,396.8
			c-21.205,0-38.4-17.195-38.4-38.4s17.195-38.4,38.4-38.4c21.205,0,38.4,17.195,38.4,38.4S418.005,396.8,396.8,396.8z M486.4,281.6
			h-25.6v25.6h25.6v38.4h-26.897c-5.948-29.175-31.795-51.2-62.703-51.2s-56.755,22.025-62.703,51.2H332.8V243.2h75.221
			l78.379,19.601V281.6z"/>
	</g>
</g>
</svg>