<?xml version="1.0" encoding="UTF-8"?>
<svg xmlns="http://www.w3.org/2000/svg" id="Layer_1" data-name="Layer 1" viewBox="0 0 24 24">
  <path d="m19.5,6h-2.5v-.5c0-2.481-2.019-4.5-4.5-4.5-.276,0-.5.224-.5.5s.224.5.5.5c1.93,0,3.5,1.57,3.5,3.5v12.5H3.5c-1.379,0-2.5-1.122-2.5-2.5v-4c0-.276-.224-.5-.5-.5s-.5.224-.5.5v4c0,1.496.944,2.776,2.268,3.276-.176.384-.268.798-.268,1.224,0,1.654,1.346,3,3,3s3-1.346,3-3c0-.344-.06-.681-.176-1h8.352c-.116.319-.176.656-.176,1,0,1.654,1.346,3,3,3s3-1.346,3-3c0-.426-.092-.84-.268-1.224,1.324-.5,2.268-1.78,2.268-3.276v-5c0-2.481-2.019-4.5-4.5-4.5Zm0,1c1.93,0,3.5,1.57,3.5,3.5v1.5h-6v-5h2.5Zm-12.5,13c0,1.103-.897,2-2,2s-2-.897-2-2c0-.355.097-.698.281-1.007.072.005.145.007.219.007h3.223c.182.307.277.648.277,1Zm14,0c0,1.103-.897,2-2,2s-2-.897-2-2c0-.352.095-.693.277-1h3.223c.073,0,.146-.003.219-.007.185.309.281.652.281,1.007Zm-.5-2h-3.5v-5h6v2.5c0,1.378-1.121,2.5-2.5,2.5ZM5.146,5.854c-.094-.094-.146-.221-.146-.354v-2c0-.276.224-.5.5-.5s.5.224.5.5v1.793l.854.854c.195.195.195.512,0,.707-.098.098-.226.146-.354.146s-.256-.049-.354-.146l-1-1Zm.354,5.146c3.032,0,5.5-2.467,5.5-5.5S8.532,0,5.5,0,0,2.467,0,5.5s2.468,5.5,5.5,5.5Zm0-10c2.481,0,4.5,2.019,4.5,4.5s-2.019,4.5-4.5,4.5S1,7.981,1,5.5,3.019,1,5.5,1Z"/>
</svg>
